<?xml version="1.0" encoding="UTF-8" standalone="no"?>
<svg
   width="74.664px"
   height="74.664px"
   viewBox="0 0 74.664 74.664"
   version="1.1"
   id="svg84"
   sodipodi:docname="avatar_02.svg"
   inkscape:version="1.2 (dc2aedaf03, 2022-05-15)"
   xmlns:inkscape="http://www.inkscape.org/namespaces/inkscape"
   xmlns:sodipodi="http://sodipodi.sourceforge.net/DTD/sodipodi-0.dtd"
   xmlns="http://www.w3.org/2000/svg"
   xmlns:svg="http://www.w3.org/2000/svg">
  <sodipodi:namedview
     id="namedview86"
     pagecolor="#ffffff"
     bordercolor="#666666"
     borderopacity="1.0"
     inkscape:showpageshadow="2"
     inkscape:pageopacity="0.0"
     inkscape:pagecheckerboard="0"
     inkscape:deskcolor="#d1d1d1"
     showgrid="false"
     inkscape:zoom="5.208785"
     inkscape:cx="19.966269"
     inkscape:cy="38.780637"
     inkscape:window-width="1366"
     inkscape:window-height="705"
     inkscape:window-x="1912"
     inkscape:window-y="-8"
     inkscape:window-maximized="1"
     inkscape:current-layer="svg84" />
  <defs
     id="defs48">
    <clipPath
       id="clip-path">
      <path
         clip-rule="evenodd"
         d="M53.478 51.993A30.814 30.814 0 0 1 30.9 61.8a31.206 31.206 0 0 1-3.837-.237A34.069 34.069 0 0 1 15.9 57.919a31.032 31.032 0 0 1-7.856-6.225l1.283-3.1 13.925-6.212c0 4.535 1.31 10.02 7.439 10.113 7.57.114 8.47-5.475 8.47-10.15l12.79 6.282z"
         fill="none"
         id="path45" />
    </clipPath>
  </defs>
  <title
     id="title50" />
  <g
     data-name="Layer 2"
     id="Layer_2"
     transform="scale(1.208138)">
    <g
       data-name="—ÎÓÈ 1"
       id="_ÎÓÈ_1">
      <circle
         cx="30.8999"
         cy="30.8999"
         fill="#3dbc93"
         r="30.8999"
         id="circle52" />
      <path
         d="M 53.478,51.993 A 30.814,30.814 0 0 1 30.9,61.8 31.206,31.206 0 0 1 27.063,61.563 34.069,34.069 0 0 1 15.9,57.919 31.032,31.032 0 0 1 8.044,51.694 l 1.283,-3.1 13.925,-6.212 c 0,4.535 1.31,10.02 7.439,10.113 7.57,0.114 8.47,-5.475 8.47,-10.15 l 12.79,6.282 z"
         fill="#e9573e"
         fill-rule="evenodd"
         id="path54" />
      <g
         clip-path="url(#clip-path)"
         id="g58">
        <path
           d="M 0.694,74.664 V 73.902 H 66.5 v 0.762 z m 9.401,-40.977 v 2.237 h 2.215 v -2.237 z m 0,3 v 2.24 h 2.215 v -2.24 z m 0,3.002 v 1.86 h 2.215 v -1.86 z m 0,2.622 v 2.24 h 2.215 v -2.24 z m 0,3.002 v 2.237 h 2.215 v -2.237 z m 0,3 v 2.24 h 2.215 v -2.24 z m 0,3.002 v 1.956 h 2.215 v -1.956 z m 0,2.718 v 2.24 h 2.215 v -2.24 z m 0,3.003 v 2.237 h 2.215 v -2.237 z m 0,2.999 v 2.24 h 2.215 v -2.24 z m 0,3.002 v 1.86 h 2.215 v -1.86 z m 0,2.623 v 2.229 H 9.342 v -2.23 H 0.694 v -0.762 h 8.648 v -1.86 H 0.694 v -0.762 h 8.648 v -2.24 H 0.694 V 59.273 H 9.342 V 57.036 H 0.694 v -0.763 h 8.648 v -2.24 H 0.694 V 53.271 H 9.342 V 51.315 H 0.694 v -0.762 h 8.648 v -2.24 H 0.694 V 47.55 H 9.342 V 45.313 H 0.694 v -0.762 h 8.648 v -2.24 H 0.694 v -0.762 h 8.648 v -1.86 H 0.694 v -0.763 h 8.648 v -2.24 H 0.694 V 35.924 H 9.342 V 33.687 H 0.694 V 32.924 H 66.5 v 0.763 H 53.58 v 2.237 H 66.5 v 0.762 H 53.58 v 2.24 H 66.5 v 0.763 H 53.58 v 1.86 H 66.5 v 0.762 H 53.58 v 2.24 H 66.5 v 0.762 H 53.58 V 47.55 H 66.5 v 0.763 H 53.58 v 2.24 H 66.5 v 0.762 H 53.58 v 1.956 H 66.5 v 0.762 H 53.58 v 2.24 H 66.5 v 0.763 H 53.58 v 2.237 H 66.5 v 0.762 H 53.58 v 2.24 H 66.5 v 0.762 H 53.58 v 1.86 H 66.5 v 0.762 H 53.58 v 2.23 h -0.755 v -2.23 h -2.214 v 2.23 h -0.755 v -2.23 h -2.211 v 2.23 h -0.754 v -2.23 h -2.215 v 2.23 h -0.754 v -2.23 h -1.838 v 2.23 H 41.33 v -2.23 h -2.215 v 2.23 h -0.754 v -2.23 H 36.15 v 2.23 h -0.754 v -2.23 h -2.215 v 2.23 h -0.754 v -2.23 h -1.933 v 2.23 H 29.74 v -2.23 h -2.215 v 2.23 h -0.753 v -2.23 H 24.56 v 2.23 h -0.754 v -2.23 H 21.59 v 2.23 h -0.754 v -2.23 H 19 v 2.23 h -0.754 v -2.23 H 16.03 v 2.23 h -0.754 v -2.23 h -2.212 v 2.23 H 12.31 v -2.23 z M 34.722,29.922 h 31.78 v 0.762 H 0.693 v -0.762 h 34.028 z m 18.104,3.765 h -2.214 v 2.237 h 2.214 z m -2.969,0 h -2.211 v 2.237 h 2.211 z m -2.965,0 h -2.215 v 2.237 h 2.215 z m -2.969,0 h -1.838 v 2.237 h 1.838 z m -2.592,0 h -2.215 v 2.237 h 2.215 z m -2.969,0 H 36.15 v 2.237 h 2.212 z m -2.966,0 h -2.215 v 2.237 h 2.215 z m -2.969,0 h -1.933 v 2.237 h 1.933 z m -2.687,0 h -2.215 v 2.237 h 2.216 v -2.237 z m -2.969,0 H 24.56 v 2.237 h 2.212 v -2.237 z m -2.965,0 H 21.59 v 2.237 h 2.215 v -2.237 z m -2.969,0 H 19 v 2.237 h 1.838 v -2.237 z m -2.592,0 H 16.03 v 2.237 h 2.215 z m -2.97,0 h -2.21 v 2.237 h 2.21 z m 37.551,3 h -2.214 v 2.24 h 2.214 z m -2.969,0 h -2.211 v 2.24 h 2.211 z m -2.965,0 h -2.215 v 2.24 h 2.215 z m -2.969,0 h -1.838 v 2.24 h 1.838 z m -2.592,0 h -2.215 v 2.24 h 2.215 z m -2.969,0 H 36.15 v 2.24 h 2.212 z m -2.966,0 h -2.215 v 2.24 h 2.215 z m -2.969,0 h -1.933 v 2.24 h 1.933 z m -2.687,0 h -2.215 v 2.24 h 2.216 v -2.24 z m -2.969,0 H 24.56 v 2.24 h 2.212 v -2.24 z m -2.965,0 H 21.59 v 2.24 h 2.215 v -2.24 z m -2.969,0 H 19 v 2.24 h 1.838 v -2.24 z m -2.592,0 H 16.03 v 2.24 h 2.215 z m -2.97,0 h -2.21 v 2.24 h 2.21 z m 37.551,3.002 h -2.214 v 1.86 h 2.214 z m -2.969,0 h -2.211 v 1.86 h 2.211 z m -2.965,0 h -2.215 v 1.86 h 2.215 z m -2.969,0 h -1.838 v 1.86 h 1.838 z m -2.592,0 h -2.215 v 1.86 h 2.215 z m -2.969,0 H 36.15 v 1.86 h 2.212 z m -2.966,0 h -2.215 v 1.86 h 2.215 z m -2.969,0 h -1.933 v 1.86 h 1.933 z m -2.687,0 h -2.215 v 1.86 h 2.216 v -1.86 z m -2.969,0 H 24.56 v 1.86 h 2.212 v -1.86 z m -2.965,0 H 21.59 v 1.86 h 2.215 v -1.86 z m -2.969,0 H 19 v 1.86 h 1.838 v -1.86 z m -2.592,0 H 16.03 v 1.86 h 2.215 z m -2.97,0 h -2.21 v 1.86 h 2.21 z m 37.551,2.622 h -2.214 v 2.24 h 2.214 z m -2.969,0 h -2.211 v 2.24 h 2.211 z m -2.965,0 h -2.215 v 2.24 h 2.215 z m -2.969,0 h -1.838 v 2.24 h 1.838 z m -2.592,0 h -2.215 v 2.24 h 2.215 z m -2.969,0 H 36.15 v 2.24 h 2.212 z m -2.966,0 h -2.215 v 2.24 h 2.215 z m -2.969,0 h -1.933 v 2.24 h 1.933 z m -2.687,0 h -2.215 v 2.24 h 2.216 v -2.24 z m -2.969,0 H 24.56 v 2.24 h 2.212 v -2.24 z m -2.965,0 H 21.59 v 2.24 h 2.215 v -2.24 z m -2.969,0 H 19 v 2.24 h 1.838 v -2.24 z m -2.592,0 H 16.03 v 2.24 h 2.215 z m -2.97,0 h -2.21 v 2.24 h 2.21 z m 37.551,3.002 h -2.214 v 2.237 h 2.214 z m -2.969,0 h -2.211 v 2.237 h 2.211 z m -2.965,0 h -2.215 v 2.237 h 2.215 z m -2.969,0 h -1.838 v 2.237 h 1.838 z m -2.592,0 h -2.215 v 2.237 h 2.215 z m -2.969,0 H 36.15 v 2.237 h 2.212 z m -2.966,0 h -2.215 v 2.237 h 2.215 z m -2.969,0 h -1.933 v 2.237 h 1.933 z m -2.687,0 h -2.215 v 2.237 h 2.216 v -2.237 z m -2.969,0 H 24.56 v 2.237 h 2.212 v -2.237 z m -2.965,0 H 21.59 v 2.237 h 2.215 v -2.237 z m -2.969,0 H 19 v 2.237 h 1.838 v -2.237 z m -2.592,0 H 16.03 v 2.237 h 2.215 z m -2.97,0 h -2.21 v 2.237 h 2.21 z m 37.551,3 h -2.214 v 2.24 h 2.214 z m -2.969,0 h -2.211 v 2.24 h 2.211 z m -2.965,0 h -2.215 v 2.24 h 2.215 z m -2.969,0 h -1.838 v 2.24 h 1.838 z m -2.592,0 h -2.215 v 2.24 h 2.215 z m -2.969,0 H 36.15 v 2.24 h 2.212 z m -2.966,0 h -2.215 v 2.24 h 2.215 z m -2.969,0 h -1.933 v 2.24 h 1.933 z m -2.687,0 h -2.215 v 2.24 h 2.216 v -2.24 z m -2.969,0 H 24.56 v 2.24 h 2.212 v -2.24 z m -2.965,0 H 21.59 v 2.24 h 2.215 v -2.24 z m -2.969,0 H 19 v 2.24 h 1.838 v -2.24 z m -2.592,0 H 16.03 v 2.24 h 2.215 z m -2.97,0 h -2.21 v 2.24 h 2.21 z m 37.551,3.002 h -2.214 v 1.956 h 2.214 z m -2.969,0 h -2.211 v 1.956 h 2.211 z m -2.965,0 h -2.215 v 1.956 h 2.215 z m -2.969,0 h -1.838 v 1.956 h 1.838 z m -2.592,0 h -2.215 v 1.956 h 2.215 z m -2.969,0 H 36.15 v 1.956 h 2.212 z m -2.966,0 h -2.215 v 1.956 h 2.215 z m -2.969,0 h -1.933 v 1.956 h 1.933 z m -2.687,0 h -2.215 v 1.956 h 2.216 v -1.956 z m -2.969,0 H 24.56 v 1.956 h 2.212 v -1.956 z m -2.965,0 H 21.59 v 1.956 h 2.215 v -1.956 z m -2.969,0 H 19 v 1.956 h 1.838 v -1.956 z m -2.592,0 H 16.03 v 1.956 h 2.215 z m -2.97,0 h -2.21 v 1.956 h 2.21 z m 37.551,2.718 h -2.214 v 2.24 h 2.214 z m -2.969,0 h -2.211 v 2.24 h 2.211 z m -2.965,0 h -2.215 v 2.24 h 2.215 z m -2.969,0 h -1.838 v 2.24 h 1.838 z m -2.592,0 h -2.215 v 2.24 h 2.215 z m -2.969,0 H 36.15 v 2.24 h 2.212 z m -2.966,0 h -2.215 v 2.24 h 2.215 z m -2.969,0 h -1.933 v 2.24 h 1.933 z m -2.687,0 h -2.215 v 2.24 h 2.216 v -2.24 z m -2.969,0 H 24.56 v 2.24 h 2.212 v -2.24 z m -2.965,0 H 21.59 v 2.24 h 2.215 v -2.24 z m -2.969,0 H 19 v 2.24 h 1.838 v -2.24 z m -2.592,0 H 16.03 v 2.24 h 2.215 z m -2.97,0 h -2.21 v 2.24 h 2.21 z m 37.551,3.003 h -2.214 v 2.237 h 2.214 z m -2.969,0 h -2.211 v 2.237 h 2.211 z m -2.965,0 h -2.215 v 2.237 h 2.215 z m -2.969,0 h -1.838 v 2.237 h 1.838 z m -2.592,0 h -2.215 v 2.237 h 2.215 z m -2.969,0 H 36.15 v 2.237 h 2.212 z m -2.966,0 h -2.215 v 2.237 h 2.215 z m -2.969,0 h -1.933 v 2.237 h 1.933 z m -2.687,0 h -2.215 v 2.237 h 2.216 v -2.237 z m -2.969,0 H 24.56 v 2.237 h 2.212 v -2.237 z m -2.965,0 H 21.59 v 2.237 h 2.215 v -2.237 z m -2.969,0 H 19 v 2.237 h 1.838 v -2.237 z m -2.592,0 H 16.03 v 2.237 h 2.215 z m -2.97,0 h -2.21 v 2.237 h 2.21 z m 37.551,2.999 h -2.214 v 2.24 h 2.214 z m -2.969,0 h -2.211 v 2.24 h 2.211 z m -2.965,0 h -2.215 v 2.24 h 2.215 z m -2.969,0 h -1.838 v 2.24 h 1.838 z m -2.592,0 h -2.215 v 2.24 h 2.215 z m -2.969,0 H 36.15 v 2.24 h 2.212 z m -2.966,0 h -2.215 v 2.24 h 2.215 z m -2.969,0 h -1.933 v 2.24 h 1.933 z m -2.687,0 h -2.215 v 2.24 h 2.216 v -2.24 z m -2.969,0 H 24.56 v 2.24 h 2.212 v -2.24 z m -2.965,0 H 21.59 v 2.24 h 2.215 v -2.24 z m -2.969,0 H 19 v 2.24 h 1.838 v -2.24 z m -2.592,0 H 16.03 v 2.24 h 2.215 z m -2.97,0 h -2.21 v 2.24 h 2.21 z m 37.551,3.002 h -2.214 v 1.86 h 2.214 z m -2.969,0 h -2.211 v 1.86 h 2.211 z m -2.965,0 h -2.215 v 1.86 h 2.215 z m -2.969,0 h -1.838 v 1.86 h 1.838 z m -2.592,0 h -2.215 v 1.86 h 2.215 z m -2.969,0 H 36.15 v 1.86 h 2.212 z m -2.966,0 h -2.215 v 1.86 h 2.215 z m -2.969,0 h -1.933 v 1.86 h 1.933 z m -2.687,0 h -2.215 v 1.86 h 2.216 v -1.86 z m -2.969,0 H 24.56 v 1.86 h 2.212 v -1.86 z m -2.965,0 H 21.59 v 1.86 h 2.215 v -1.86 z m -2.969,0 H 19 v 1.86 h 1.838 v -1.86 z m -2.592,0 H 16.03 v 1.86 h 2.215 z m -2.97,0 h -2.21 v 1.86 h 2.21 z M 34.723,67.9 h 31.78 v 0.762 H 0.693 V 67.9 h 34.028 z m 0,2.999 h 31.78 v 0.763 H 0.693 v -0.763 h 34.028 z"
           fill-rule="evenodd"
           opacity="0.18"
           id="path56" />
      </g>
      <path
         d="m 23.255,38.68 15.907,0.121 V 51.719 L 23.255,51.598 Z"
         fill="#f9dca4"
         fill-rule="evenodd"
         id="path60" />
      <path
         d="m 39.162,60.682 a 31.097,31.097 0 0 1 -15.907,0.164 v -13.26 c 3.922,4.713 11.848,4.664 15.907,0.121 z"
         fill="#677079"
         fill-rule="evenodd"
         id="path62" />
      <path
         d="m 39.165,43.46 v 2.258 c 0,0.161 0.002,1.46 -0.003,1.467 -4.75,3.472 -14.539,1.365 -15.907,-3.124 z"
         fill-rule="evenodd"
         opacity="0.11"
         id="path64" />
      <path
         d="m 31.129,8.432 c 21.281,0 12.987,35.266 0,35.266 -12.266,0 -21.281,-35.266 0,-35.266 z"
         fill="#ffe8be"
         fill-rule="evenodd"
         id="path66" />
      <path
         d="m 18.365,24.046 c -3.07,1.339 -0.46,7.686 1.472,7.658 a 31.972,31.972 0 0 1 -1.472,-7.659 z"
         fill="#f9dca4"
         fill-rule="evenodd"
         id="path68" />
      <path
         d="m 44.14,24.045 c 3.07,1.339 0.46,7.687 -1.471,7.658 a 31.993,31.993 0 0 0 1.471,-7.658 z"
         fill="#f9dca4"
         fill-rule="evenodd"
         id="path70" />
      <path
         d="m 23.258,53.239 -2.404,-2.236 -4.803,2.358 7.205,-13.65 z"
         fill="#434955"
         fill-rule="evenodd"
         id="path72" />
      <path
         d="m 39.157,53.239 2.404,-2.237 4.804,2.359 -7.206,-13.651 z"
         fill="#434955"
         fill-rule="evenodd"
         id="path74" />
      <path
         d="M 18.368,23.94 C 15.536,18.98 14.68,15.73 16.1,13.29 18.149,9.77 22.671,10.201 23.065,9.372 27.09,0.893 47.904,7.324 47.035,20.462 a 14.806,14.806 0 0 0 -1.522,-2.486 c 0,0 -0.075,4.991 -1.437,6.957 -1.663,-2.874 -6.427,-5.747 -6.427,-5.747 0,0 1.285,4.31 2.117,5.218 -1.074,-0.094 -13.159,-3.479 -16.26,-13.537 -4.007,2.269 -5.29,9.366 -5.14,13.072 z"
         fill="#60350a"
         fill-rule="evenodd"
         id="path76" />
      <path
         d="m 31.15,46.543 c -2.66,0.022 -15.053,0.136 -12.796,-22.713 0,0 0.835,6.584 2.96,9.456 a 2.566,2.566 0 0 0 3.822,0.746 c 1.16,-0.835 1.397,-2.407 2.834,-2.917 a 2.68,2.68 0 0 1 3.24,0.782 2.633,2.633 0 0 1 3.213,-0.782 c 1.437,0.51 1.675,2.082 2.834,2.917 a 2.566,2.566 0 0 0 3.821,-0.746 C 43.204,30.413 44.04,23.83 44.04,23.83 46.296,46.68 33.81,46.565 31.15,46.543 Z"
         fill="#60350a"
         fill-rule="evenodd"
         id="path78" />
      <path
         d="m 23.94,35.855 c 0,0 5.64,1.699 7.233,-3.5 l 0.023,-0.075 0.022,0.075 c 1.592,5.199 7.234,3.5 7.234,3.5 -2.977,2.458 -5.176,-0.206 -7.285,-0.154 -2.273,0.056 -4.335,2.542 -7.228,0.154 z"
         fill="#362008"
         fill-rule="evenodd"
         id="path80" />
    </g>
  </g>
</svg>
