<?xml version="1.0" encoding="UTF-8" standalone="no"?>
<svg
   width="66.3577px"
   height="66.3577px"
   viewBox="-2.28 0 66.3577 66.3577"
   version="1.1"
   id="svg553"
   sodipodi:docname="avatar_09.svg"
   inkscape:version="1.2 (dc2aedaf03, 2022-05-15)"
   xmlns:inkscape="http://www.inkscape.org/namespaces/inkscape"
   xmlns:sodipodi="http://sodipodi.sourceforge.net/DTD/sodipodi-0.dtd"
   xmlns="http://www.w3.org/2000/svg"
   xmlns:svg="http://www.w3.org/2000/svg">
  <sodipodi:namedview
     id="namedview555"
     pagecolor="#ffffff"
     bordercolor="#666666"
     borderopacity="1.0"
     inkscape:showpageshadow="2"
     inkscape:pageopacity="0.0"
     inkscape:pagecheckerboard="0"
     inkscape:deskcolor="#d1d1d1"
     showgrid="false"
     inkscape:zoom="4.1442065"
     inkscape:cx="3.8608114"
     inkscape:cy="30.645191"
     inkscape:window-width="1366"
     inkscape:window-height="705"
     inkscape:window-x="1912"
     inkscape:window-y="-8"
     inkscape:window-maximized="1"
     inkscape:current-layer="svg553" />
  <defs
     id="defs513">
    <clipPath
       id="clip-path">
      <path
         clip-rule="evenodd"
         d="M53.456 52.022A30.766 30.766 0 0 1 30.9 61.829a31.163 31.163 0 0 1-3.833-.237 34.01 34.01 0 0 1-11.15-3.644 31.007 31.007 0 0 1-7.849-6.225l1.282-3.1 13.91-6.212c.625 3.723 7.806 8.175 7.806 8.175s7.213-3.412 8.087-8.211l12.777 6.281z"
         fill="none"
         id="path507" />
    </clipPath>
    <clipPath
       id="clip-path-2">
      <path
         clip-rule="evenodd"
         d="M14.112 46.496l6.814-3.042 10.209 13.978 10.328-13.938 5.949 2.831v20.033h-33.3V46.496z"
         fill="none"
         id="path510" />
    </clipPath>
  </defs>
  <title
     id="title515" />
  <g
     data-name="Layer 2"
     id="Layer_2"
     transform="matrix(1.0702488,0,0,1.0702488,-1.9304057,0.48260142)">
    <g
       data-name="—ÎÓÈ 1"
       id="_ÎÓÈ_1">
      <circle
         cx="30.8999"
         cy="30.8999"
         fill="#3dbc93"
         r="30.8999"
         id="circle517" />
      <path
         d="m 23.255,38.68 15.907,0.121 V 51.719 L 23.255,51.598 Z"
         fill="#f9dca4"
         fill-rule="evenodd"
         id="path519" />
      <path
         d="m 39.165,38.778 v 3.58 a 7.783,7.783 0 0 1 -0.098,1.18 6.527,6.527 0 0 1 -0.395,1.405 c -5.374,4.164 -13.939,0.748 -15.306,-6.365 z"
         fill-rule="evenodd"
         opacity="0.11"
         id="path521" />
      <path
         d="m 31.129,8.432 c 21.281,0 12.987,35.266 0,35.266 -12.266,0 -21.281,-35.266 0,-35.266 z"
         fill="#ffe8be"
         fill-rule="evenodd"
         id="path523" />
      <path
         d="m 18.365,24.046 c -3.07,1.339 -0.46,7.686 1.472,7.658 a 31.972,31.972 0 0 1 -1.472,-7.659 z"
         fill="#f9dca4"
         fill-rule="evenodd"
         id="path525" />
      <path
         d="m 44.135,24.046 c 3.07,1.339 0.465,7.686 -1.466,7.657 a 31.978,31.978 0 0 0 1.466,-7.657 z"
         fill="#f9dca4"
         fill-rule="evenodd"
         id="path527" />
      <path
         d="m 44.123,24.17 c 0,0 7.96,-11.785 -2.636,-16.334 A 11.881,11.881 0 0 0 28.617,2.616 C 22.775,3.805 20.604,6.7 20.604,6.7 c 0,0 -5.53,5.014 -10.44,5.117 a 9.774,9.774 0 0 0 6.28,1.758 c -0.672,1.68 -1.965,7.21 1.989,10.854 4.368,-2.868 8.012,-8.477 8.012,-8.477 0,0 0.982,3.257 0.207,4.86 a 18.879,18.879 0 0 0 7.922,-3.531 c 2.542,-2.036 3.893,-4.297 5.31,-4.326 3.256,-0.069 4.213,9.74 4.24,11.216 z"
         fill="#ecbe6a"
         fill-rule="evenodd"
         id="path529" />
      <path
         d="M 53.456,52.022 A 30.766,30.766 0 0 1 30.9,61.829 31.163,31.163 0 0 1 27.067,61.592 34.01,34.01 0 0 1 15.917,57.948 31.007,31.007 0 0 1 8.068,51.723 l 1.282,-3.1 13.91,-6.212 c 0.625,3.723 7.806,8.175 7.806,8.175 0,0 7.213,-3.412 8.087,-8.211 l 12.777,6.281 z"
         fill="#498bd9"
         fill-rule="evenodd"
         id="path531" />
      <g
         clip-path="url(#clip-path)"
         id="g539">
        <path
           d="m 14.112,46.496 6.814,-3.042 10.209,13.978 10.328,-13.938 5.949,2.831 v 20.033 h -33.3 z"
           fill="#545f69"
           fill-rule="evenodd"
           id="path533" />
        <g
           clip-path="url(#clip-path-2)"
           id="g537">
          <path
             d="m 37.79,42.881 h 0.732 V 64.263 H 37.79 Z m -14.775,0 h 0.731 v 21.382 h -0.73 V 42.881 Z m -2.981,0 h 0.731 v 21.382 h -0.731 z m -2.944,0 h 0.731 v 21.382 h -0.73 V 42.881 Z m -2.981,0 h 0.731 v 21.382 h -0.731 z m 20.708,0 h 0.731 v 21.382 h -0.731 z m -2.981,0 h 0.731 v 21.382 h -0.731 z m -2.944,0 h 0.731 v 21.382 h -0.731 z m -2.981,0 h 0.731 v 21.382 h -0.731 z m 20.785,0 h 0.732 v 21.382 h -0.732 z m -2.98,0 h 0.73 v 21.382 h -0.73 z m -2.944,0 h 0.73 v 21.382 h -0.73 z"
             fill="#434955"
             fill-rule="evenodd"
             id="path535" />
        </g>
      </g>
      <path
         d="m 23.265,41.27 7.802,9.316 -6.305,3.553 -4.823,-10.591 z"
         fill="#58b0e0"
         fill-rule="evenodd"
         id="path541" />
      <path
         d="m 39.155,41.45 -8.088,9.136 6.518,3.553 4.777,-10.719 z"
         fill="#58b0e0"
         fill-rule="evenodd"
         id="path543" />
      <path
         d="m 21.637,23.157 h 6.416 a 1.58,1.58 0 0 1 1.119,0.464 v 0.002 a 1.579,1.579 0 0 1 0.464,1.117 v 2.893 a 1.585,1.585 0 0 1 -1.583,1.583 H 21.637 A 1.578,1.578 0 0 1 20.521,28.751 H 20.519 A 1.58,1.58 0 0 1 20.055,27.633 V 24.74 a 1.579,1.579 0 0 1 0.464,-1.117 l 0.002,-0.002 a 1.578,1.578 0 0 1 1.116,-0.464 z m 6.416,0.85 h -6.416 a 0.735,0.735 0 0 0 -0.517,0.214 l -0.001,0.002 a 0.735,0.735 0 0 0 -0.214,0.517 v 2.893 a 0.73,0.73 0 0 0 0.215,0.517 0.735,0.735 0 0 0 0.517,0.215 h 6.416 a 0.735,0.735 0 0 0 0.732,-0.732 V 24.74 a 0.734,0.734 0 0 0 -0.214,-0.518 0.731,0.731 0 0 0 -0.518,-0.215 z"
         fill="#464449"
         fill-rule="evenodd"
         id="path545" />
      <path
         d="m 34.548,23.157 h 6.416 a 1.58,1.58 0 0 1 1.118,0.464 v 0.002 a 1.579,1.579 0 0 1 0.465,1.117 v 2.893 a 1.585,1.585 0 0 1 -1.583,1.583 H 34.548 A 1.58,1.58 0 0 1 33.431,28.751 L 33.43,28.749 A 1.58,1.58 0 0 1 32.965,27.633 V 24.74 a 1.58,1.58 0 0 1 0.465,-1.117 l 0.002,-0.001 a 1.58,1.58 0 0 1 1.116,-0.465 z m 6.416,0.85 h -6.416 a 0.73,0.73 0 0 0 -0.517,0.214 l -10e-4,0.002 a 0.729,0.729 0 0 0 -0.214,0.517 v 2.893 a 0.73,0.73 0 0 0 0.214,0.517 l 10e-4,0.001 a 0.73,0.73 0 0 0 0.517,0.214 h 6.416 a 0.735,0.735 0 0 0 0.732,-0.732 V 24.74 a 0.734,0.734 0 0 0 -0.214,-0.518 h -10e-4 a 0.731,0.731 0 0 0 -0.517,-0.215 z"
         fill="#464449"
         fill-rule="evenodd"
         id="path547" />
      <path
         d="m 29.415,24.506 h 3.845 v 0.876 h -3.845 z"
         fill="#464449"
         id="path549" />
    </g>
  </g>
</svg>
