<?xml version="1.0" encoding="UTF-8" standalone="no"?>
<!DOCTYPE svg PUBLIC "-//W3C//DTD SVG 1.1//EN"
 "http://www.w3.org/Graphics/SVG/1.1/DTD/svg11.dtd">
<!-- Generated by graphviz version 5.0.0 (20220707.1540)
 -->
<!-- Title: dependencies Pages: 1 -->
<svg width="651pt" height="247pt"
 viewBox="0.00 0.00 651.00 246.80" xmlns="http://www.w3.org/2000/svg" xmlns:xlink="http://www.w3.org/1999/xlink">
<g id="graph0" class="graph" transform="scale(1 1) rotate(0) translate(4 242.8)">
<title>dependencies</title>
<polygon fill="white" stroke="transparent" points="-4,4 -4,-242.8 647,-242.8 647,4 -4,4"/>
<text text-anchor="middle" x="321.5" y="-8.2" font-family="sans-serif" font-size="14.00">dependencies</text>
<g id="clust1" class="cluster">
<title>cluster_AppModule</title>
<polygon fill="none" stroke="black" stroke-dasharray="1,5" points="8,-32.8 8,-230.8 635,-230.8 635,-32.8 8,-32.8"/>
</g>
<g id="clust6" class="cluster">
<title>cluster_AppModule_bootstrap</title>
<polygon fill="none" stroke="black" points="240,-170.8 240,-222.8 364,-222.8 364,-170.8 240,-170.8"/>
</g>
<g id="clust7" class="cluster">
<title>cluster_AppModule_providers</title>
<polygon fill="none" stroke="black" points="298,-40.8 298,-92.8 627,-92.8 627,-40.8 298,-40.8"/>
</g>
<g id="clust2" class="cluster">
<title>cluster_AppModule_declarations</title>
<polygon fill="none" stroke="black" points="168,-40.8 168,-92.8 290,-92.8 290,-40.8 168,-40.8"/>
</g>
<g id="clust4" class="cluster">
<title>cluster_AppModule_imports</title>
<polygon fill="none" stroke="black" points="16,-40.8 16,-92.8 160,-92.8 160,-40.8 16,-40.8"/>
</g>
<!-- AppComponent -->
<g id="node1" class="node">
<title>AppComponent</title>
<polygon fill="#ffffb3" stroke="black" points="281.94,-84.8 176.06,-84.8 176.06,-48.8 281.94,-48.8 281.94,-84.8"/>
<text text-anchor="middle" x="229" y="-62.6" font-family="Times,serif" font-size="14.00">AppComponent</text>
</g>
<!-- AppModule -->
<g id="node2" class="node">
<title>AppModule</title>
<polygon fill="#8dd3c7" stroke="black" points="343.66,-149.8 340.66,-153.8 319.66,-153.8 316.66,-149.8 260.34,-149.8 260.34,-113.8 343.66,-113.8 343.66,-149.8"/>
<text text-anchor="middle" x="302" y="-127.6" font-family="Times,serif" font-size="14.00">AppModule</text>
</g>
<!-- AppComponent&#45;&gt;AppModule -->
<g id="edge1" class="edge">
<title>AppComponent&#45;&gt;AppModule</title>
<path fill="none" stroke="black" d="M270.94,-84.91C270.94,-84.91 270.94,-103.79 270.94,-103.79"/>
<polygon fill="black" stroke="black" points="267.44,-103.79 270.94,-113.79 274.44,-103.79 267.44,-103.79"/>
</g>
<!-- AppComponent  -->
<g id="node4" class="node">
<title>AppComponent </title>
<polygon fill="#80b1d3" stroke="black" points="356.44,-214.8 247.56,-214.8 247.56,-178.8 356.44,-178.8 356.44,-214.8"/>
<text text-anchor="middle" x="302" y="-192.6" font-family="Times,serif" font-size="14.00">AppComponent </text>
</g>
<!-- AppModule&#45;&gt;AppComponent  -->
<g id="edge3" class="edge">
<title>AppModule&#45;&gt;AppComponent </title>
<path fill="none" stroke="black" stroke-dasharray="1,5" d="M302,-149.91C302,-149.91 302,-168.79 302,-168.79"/>
<polygon fill="black" stroke="black" points="298.5,-168.79 302,-178.79 305.5,-168.79 298.5,-168.79"/>
</g>
<!-- AppRoutingModule -->
<g id="node3" class="node">
<title>AppRoutingModule</title>
<polygon fill="#8dd3c7" stroke="black" points="152.28,-84.8 149.28,-88.8 128.28,-88.8 125.28,-84.8 23.72,-84.8 23.72,-48.8 152.28,-48.8 152.28,-84.8"/>
<text text-anchor="middle" x="88" y="-62.6" font-family="Times,serif" font-size="14.00">AppRoutingModule</text>
</g>
<!-- AppRoutingModule&#45;&gt;AppModule -->
<g id="edge2" class="edge">
<title>AppRoutingModule&#45;&gt;AppModule</title>
<path fill="none" stroke="black" d="M88,-84.91C88,-104.14 88,-131.8 88,-131.8 88,-131.8 250.23,-131.8 250.23,-131.8"/>
<polygon fill="black" stroke="black" points="250.23,-135.3 260.23,-131.8 250.23,-128.3 250.23,-135.3"/>
</g>
<!-- LanguageService -->
<g id="node5" class="node">
<title>LanguageService</title>
<ellipse fill="#fdb462" stroke="black" cx="541" cy="-66.8" rx="78.13" ry="18"/>
<text text-anchor="middle" x="541" y="-62.6" font-family="Times,serif" font-size="14.00">LanguageService</text>
</g>
<!-- LanguageService&#45;&gt;AppModule -->
<g id="edge4" class="edge">
<title>LanguageService&#45;&gt;AppModule</title>
<path fill="none" stroke="black" d="M541,-84.91C541,-104.14 541,-131.8 541,-131.8 541,-131.8 353.9,-131.8 353.9,-131.8"/>
<polygon fill="black" stroke="black" points="353.9,-128.3 343.9,-131.8 353.9,-135.3 353.9,-128.3"/>
</g>
<!-- StorageService -->
<g id="node6" class="node">
<title>StorageService</title>
<ellipse fill="#fdb462" stroke="black" cx="375" cy="-66.8" rx="69.48" ry="18"/>
<text text-anchor="middle" x="375" y="-62.6" font-family="Times,serif" font-size="14.00">StorageService</text>
</g>
<!-- StorageService&#45;&gt;AppModule -->
<g id="edge5" class="edge">
<title>StorageService&#45;&gt;AppModule</title>
<path fill="none" stroke="black" d="M324.67,-79.33C324.67,-79.33 324.67,-103.65 324.67,-103.65"/>
<polygon fill="black" stroke="black" points="321.17,-103.65 324.67,-113.65 328.17,-103.65 321.17,-103.65"/>
</g>
</g>
</svg>
