<?xml version="1.0" encoding="UTF-8" standalone="no"?>
<!DOCTYPE svg PUBLIC "-//W3C//DTD SVG 1.1//EN"
 "http://www.w3.org/Graphics/SVG/1.1/DTD/svg11.dtd">
<!-- Generated by graphviz version 5.0.0 (20220707.1540)
 -->
<!-- Title: dependencies Pages: 1 -->
<svg width="586pt" height="174pt"
 viewBox="0.00 0.00 586.00 173.80" xmlns="http://www.w3.org/2000/svg" xmlns:xlink="http://www.w3.org/1999/xlink">
<g id="graph0" class="graph" transform="scale(1 1) rotate(0) translate(4 169.8)">
<title>dependencies</title>
<polygon fill="white" stroke="transparent" points="-4,4 -4,-169.8 582,-169.8 582,4 -4,4"/>
<text text-anchor="middle" x="289" y="-8.2" font-family="sans-serif" font-size="14.00">dependencies</text>
<g id="clust1" class="cluster">
<title>cluster_PlayersPageModule</title>
<polygon fill="none" stroke="black" stroke-dasharray="1,5" points="8,-32.8 8,-157.8 570,-157.8 570,-32.8 8,-32.8"/>
</g>
<g id="clust2" class="cluster">
<title>cluster_PlayersPageModule_declarations</title>
<polygon fill="none" stroke="black" points="214,-40.8 214,-92.8 562,-92.8 562,-40.8 214,-40.8"/>
</g>
<g id="clust6" class="cluster">
<title>cluster_PlayersPageModule_imports</title>
<polygon fill="none" stroke="black" points="16,-40.8 16,-92.8 206,-92.8 206,-40.8 16,-40.8"/>
</g>
<!-- ListPlayersPage -->
<g id="node1" class="node">
<title>ListPlayersPage</title>
<polygon fill="#ffffb3" stroke="black" points="554.21,-84.8 447.79,-84.8 447.79,-48.8 554.21,-48.8 554.21,-84.8"/>
<text text-anchor="middle" x="501" y="-62.6" font-family="Times,serif" font-size="14.00">ListPlayersPage</text>
</g>
<!-- PlayersPageModule -->
<g id="node4" class="node">
<title>PlayersPageModule</title>
<polygon fill="#8dd3c7" stroke="black" points="383.98,-149.8 380.98,-153.8 359.98,-153.8 356.98,-149.8 256.02,-149.8 256.02,-113.8 383.98,-113.8 383.98,-149.8"/>
<text text-anchor="middle" x="320" y="-127.6" font-family="Times,serif" font-size="14.00">PlayersPageModule</text>
</g>
<!-- ListPlayersPage&#45;&gt;PlayersPageModule -->
<g id="edge1" class="edge">
<title>ListPlayersPage&#45;&gt;PlayersPageModule</title>
<path fill="none" stroke="black" d="M501,-84.91C501,-104.14 501,-131.8 501,-131.8 501,-131.8 394.07,-131.8 394.07,-131.8"/>
<polygon fill="black" stroke="black" points="394.07,-128.3 384.07,-131.8 394.07,-135.3 394.07,-128.3"/>
</g>
<!-- NewPlayerPage -->
<g id="node2" class="node">
<title>NewPlayerPage</title>
<polygon fill="#ffffb3" stroke="black" points="429.91,-84.8 324.09,-84.8 324.09,-48.8 429.91,-48.8 429.91,-84.8"/>
<text text-anchor="middle" x="377" y="-62.6" font-family="Times,serif" font-size="14.00">NewPlayerPage</text>
</g>
<!-- NewPlayerPage&#45;&gt;PlayersPageModule -->
<g id="edge2" class="edge">
<title>NewPlayerPage&#45;&gt;PlayersPageModule</title>
<path fill="none" stroke="black" d="M354.14,-84.91C354.14,-84.91 354.14,-103.79 354.14,-103.79"/>
<polygon fill="black" stroke="black" points="350.64,-103.79 354.14,-113.79 357.64,-103.79 350.64,-103.79"/>
</g>
<!-- PlayersPage -->
<g id="node3" class="node">
<title>PlayersPage</title>
<polygon fill="#ffffb3" stroke="black" points="306.43,-84.8 221.57,-84.8 221.57,-48.8 306.43,-48.8 306.43,-84.8"/>
<text text-anchor="middle" x="264" y="-62.6" font-family="Times,serif" font-size="14.00">PlayersPage</text>
</g>
<!-- PlayersPage&#45;&gt;PlayersPageModule -->
<g id="edge3" class="edge">
<title>PlayersPage&#45;&gt;PlayersPageModule</title>
<path fill="none" stroke="black" d="M281.11,-84.91C281.11,-84.91 281.11,-103.79 281.11,-103.79"/>
<polygon fill="black" stroke="black" points="277.61,-103.79 281.11,-113.79 284.61,-103.79 277.61,-103.79"/>
</g>
<!-- PlayersPageRoutingModule -->
<g id="node5" class="node">
<title>PlayersPageRoutingModule</title>
<polygon fill="#8dd3c7" stroke="black" points="197.6,-84.8 194.6,-88.8 173.6,-88.8 170.6,-84.8 24.4,-84.8 24.4,-48.8 197.6,-48.8 197.6,-84.8"/>
<text text-anchor="middle" x="111" y="-62.6" font-family="Times,serif" font-size="14.00">PlayersPageRoutingModule</text>
</g>
<!-- PlayersPageRoutingModule&#45;&gt;PlayersPageModule -->
<g id="edge4" class="edge">
<title>PlayersPageRoutingModule&#45;&gt;PlayersPageModule</title>
<path fill="none" stroke="black" d="M111,-84.91C111,-104.14 111,-131.8 111,-131.8 111,-131.8 245.87,-131.8 245.87,-131.8"/>
<polygon fill="black" stroke="black" points="245.87,-135.3 255.87,-131.8 245.87,-128.3 245.87,-135.3"/>
</g>
</g>
</svg>
