<?xml version="1.0" encoding="iso-8859-1"?>
<!-- Generator: Adobe Illustrator 19.0.0, SVG Export Plug-In . SVG Version: 6.00 Build 0)  -->
<svg version="1.1" id="Layer_1" xmlns="http://www.w3.org/2000/svg" xmlns:xlink="http://www.w3.org/1999/xlink" x="0px" y="0px"
	 viewBox="0 0 480 480" style="enable-background:new 0 0 480 480;" xml:space="preserve">
<polygon style="fill:#C9C6B1;" points="128,256 116,272 8,272 8,379.2 0,384 7.2,400 136,400 136,270.4 "/>
<rect y="256" style="fill:#F7F6ED;" width="128" height="128"/>
<polyline style="fill:#EAE9DA;" points="128,256 128,384 0,384 "/>
<path style="fill:#4A514F;" d="M56,336l-4.8,16H36.8L56,288h19.2l20,64h-16l-4.8-16H56z M72.8,328L72.8,328l-6.4-24H64l-5.6,24l0,0
	H72.8z"/>
<polygon style="fill:#C9C6B1;" points="304,256 286.4,272 176,272 176,379.2 168,384 177.6,400 312,400 312,270.4 "/>
<rect x="168" y="256" style="fill:#F7F6ED;" width="136" height="128"/>
<polyline style="fill:#EAE9DA;" points="304,256 304,384 168,384 "/>
<path style="fill:#4A514F;" d="M217.6,337.6c4,2.4,9.6,4,16,4s10.4-2.4,10.4-7.2c0-4-3.2-6.4-11.2-8.8c-10.4-4-17.6-9.6-17.6-19.2
	c0-11.2,9.6-19.2,24.8-19.2c7.2,0,12.8,1.6,16.8,3.2l-3.2,12c-2.4-1.6-7.2-3.2-13.6-3.2s-9.6,3.2-9.6,6.4c0,4,4,5.6,12,8.8
	c11.2,4,16.8,10.4,16.8,19.2c0,11.2-8,20-26.4,20c-7.2,0-14.4-1.6-18.4-4L217.6,337.6z"/>
<polygon style="fill:#C9C6B1;" points="224,80 210.4,96 104,96 104,203.2 96,208 101.6,224 232,224 232,94.4 "/>
<rect x="96" y="80" style="fill:#F7F6ED;" width="128" height="128"/>
<polyline style="fill:#EAE9DA;" points="224,80 224,208 96,208 "/>
<path style="fill:#4A514F;" d="M134.4,176l-15.2-64h16l4.8,26.4c1.6,8,2.4,13.6,4,21.6l0,0c0.8-8,2.4-14.4,4-22.4l5.6-25.6h15.2
	l4.8,26.4c1.6,7.2,2.4,13.6,3.2,21.6l0,0c0.8-8,2.4-14.4,4-21.6l5.6-26.4h15.2l-16.8,64h-16l-5.6-28c-1.6-6.4-2.4-12-3.2-20l0,0
	c-0.8,8-2.4,13.6-4,20l-5.6,28H134.4z"/>
<polygon style="fill:#C9C6B1;" points="472,256 456.8,272 352,272 352,379.2 344,384 348,400 480,400 480,270.4 "/>
<rect x="344" y="256" style="fill:#F7F6ED;" width="128" height="128"/>
<polyline style="fill:#EAE9DA;" points="472,256 472,384 344,384 "/>
<path style="fill:#4A514F;" d="M376,288.8c8-0.8,13.6-1.6,20.8-1.6c12,0,20.8,2.4,27.2,7.2c6.4,4.8,11.2,12.8,11.2,24
	c0,12-4,20.8-10.4,26.4c-7.2,5.6-18.4,8-31.2,8c-7.2,0-9.6-0.8-17.6-0.8V288.8z M392,341.6c0,0,4,0,5.6,0c13.6,0,22.4-7.2,22.4-22.4
	c0-13.6-8-20.8-20.8-20.8c-3.2,0-7.2,0-7.2,0.8V341.6z"/>
<g>
</g>
<g>
</g>
<g>
</g>
<g>
</g>
<g>
</g>
<g>
</g>
<g>
</g>
<g>
</g>
<g>
</g>
<g>
</g>
<g>
</g>
<g>
</g>
<g>
</g>
<g>
</g>
<g>
</g>
</svg>
