<?xml version="1.0" encoding="UTF-8" standalone="no"?>
<!DOCTYPE svg PUBLIC "-//W3C//DTD SVG 1.1//EN"
 "http://www.w3.org/Graphics/SVG/1.1/DTD/svg11.dtd">
<!-- Generated by graphviz version 5.0.0 (20220707.1540)
 -->
<!-- Title: dependencies Pages: 1 -->
<svg width="520pt" height="174pt"
 viewBox="0.00 0.00 520.00 173.80" xmlns="http://www.w3.org/2000/svg" xmlns:xlink="http://www.w3.org/1999/xlink">
<g id="graph0" class="graph" transform="scale(1 1) rotate(0) translate(4 169.8)">
<title>dependencies</title>
<polygon fill="white" stroke="transparent" points="-4,4 -4,-169.8 516,-169.8 516,4 -4,4"/>
<text text-anchor="middle" x="256" y="-8.2" font-family="sans-serif" font-size="14.00">dependencies</text>
<g id="clust1" class="cluster">
<title>cluster_HelpPageModule</title>
<polygon fill="none" stroke="black" stroke-dasharray="1,5" points="8,-32.8 8,-157.8 504,-157.8 504,-32.8 8,-32.8"/>
</g>
<g id="clust2" class="cluster">
<title>cluster_HelpPageModule_declarations</title>
<polygon fill="none" stroke="black" points="200,-40.8 200,-92.8 496,-92.8 496,-40.8 200,-40.8"/>
</g>
<g id="clust6" class="cluster">
<title>cluster_HelpPageModule_imports</title>
<polygon fill="none" stroke="black" points="16,-40.8 16,-92.8 192,-92.8 192,-40.8 16,-40.8"/>
</g>
<!-- AboutPage -->
<g id="node1" class="node">
<title>AboutPage</title>
<polygon fill="#ffffb3" stroke="black" points="488.21,-84.8 409.79,-84.8 409.79,-48.8 488.21,-48.8 488.21,-84.8"/>
<text text-anchor="middle" x="449" y="-62.6" font-family="Times,serif" font-size="14.00">AboutPage</text>
</g>
<!-- HelpPageModule -->
<g id="node4" class="node">
<title>HelpPageModule</title>
<polygon fill="#8dd3c7" stroke="black" points="362.98,-149.8 359.98,-153.8 338.98,-153.8 335.98,-149.8 249.02,-149.8 249.02,-113.8 362.98,-113.8 362.98,-149.8"/>
<text text-anchor="middle" x="306" y="-127.6" font-family="Times,serif" font-size="14.00">HelpPageModule</text>
</g>
<!-- AboutPage&#45;&gt;HelpPageModule -->
<g id="edge1" class="edge">
<title>AboutPage&#45;&gt;HelpPageModule</title>
<path fill="none" stroke="black" d="M449,-84.91C449,-104.14 449,-131.8 449,-131.8 449,-131.8 373.34,-131.8 373.34,-131.8"/>
<polygon fill="black" stroke="black" points="373.34,-128.3 363.34,-131.8 373.34,-135.3 373.34,-128.3"/>
</g>
<!-- HelpPage -->
<g id="node2" class="node">
<title>HelpPage</title>
<polygon fill="#ffffb3" stroke="black" points="392.43,-84.8 321.57,-84.8 321.57,-48.8 392.43,-48.8 392.43,-84.8"/>
<text text-anchor="middle" x="357" y="-62.6" font-family="Times,serif" font-size="14.00">HelpPage</text>
</g>
<!-- HelpPage&#45;&gt;HelpPageModule -->
<g id="edge2" class="edge">
<title>HelpPage&#45;&gt;HelpPageModule</title>
<path fill="none" stroke="black" d="M342.39,-84.91C342.39,-84.91 342.39,-103.79 342.39,-103.79"/>
<polygon fill="black" stroke="black" points="338.89,-103.79 342.39,-113.79 345.89,-103.79 338.89,-103.79"/>
</g>
<!-- HowPlayPage -->
<g id="node3" class="node">
<title>HowPlayPage</title>
<polygon fill="#ffffb3" stroke="black" points="303.82,-84.8 208.18,-84.8 208.18,-48.8 303.82,-48.8 303.82,-84.8"/>
<text text-anchor="middle" x="256" y="-62.6" font-family="Times,serif" font-size="14.00">HowPlayPage</text>
</g>
<!-- HowPlayPage&#45;&gt;HelpPageModule -->
<g id="edge3" class="edge">
<title>HowPlayPage&#45;&gt;HelpPageModule</title>
<path fill="none" stroke="black" d="M276.34,-84.91C276.34,-84.91 276.34,-103.79 276.34,-103.79"/>
<polygon fill="black" stroke="black" points="272.84,-103.79 276.34,-113.79 279.84,-103.79 272.84,-103.79"/>
</g>
<!-- HelpPageRoutingModule -->
<g id="node5" class="node">
<title>HelpPageRoutingModule</title>
<polygon fill="#8dd3c7" stroke="black" points="183.6,-84.8 180.6,-88.8 159.6,-88.8 156.6,-84.8 24.4,-84.8 24.4,-48.8 183.6,-48.8 183.6,-84.8"/>
<text text-anchor="middle" x="104" y="-62.6" font-family="Times,serif" font-size="14.00">HelpPageRoutingModule</text>
</g>
<!-- HelpPageRoutingModule&#45;&gt;HelpPageModule -->
<g id="edge4" class="edge">
<title>HelpPageRoutingModule&#45;&gt;HelpPageModule</title>
<path fill="none" stroke="black" d="M104,-84.91C104,-104.14 104,-131.8 104,-131.8 104,-131.8 238.92,-131.8 238.92,-131.8"/>
<polygon fill="black" stroke="black" points="238.92,-135.3 248.92,-131.8 238.92,-128.3 238.92,-135.3"/>
</g>
</g>
</svg>
