<?xml version="1.0" encoding="UTF-8" standalone="no"?>
<!DOCTYPE svg PUBLIC "-//W3C//DTD SVG 1.1//EN"
 "http://www.w3.org/Graphics/SVG/1.1/DTD/svg11.dtd">
<!-- Generated by graphviz version 5.0.0 (20220707.1540)
 -->
<!-- Title: dependencies Pages: 1 -->
<svg width="322pt" height="174pt"
 viewBox="0.00 0.00 322.00 173.80" xmlns="http://www.w3.org/2000/svg" xmlns:xlink="http://www.w3.org/1999/xlink">
<g id="graph0" class="graph" transform="scale(1 1) rotate(0) translate(4 169.8)">
<title>dependencies</title>
<polygon fill="white" stroke="transparent" points="-4,4 -4,-169.8 318,-169.8 318,4 -4,4"/>
<text text-anchor="middle" x="157" y="-8.2" font-family="sans-serif" font-size="14.00">dependencies</text>
<g id="clust1" class="cluster">
<title>cluster_GamePageModule</title>
<polygon fill="none" stroke="black" stroke-dasharray="1,5" points="8,-32.8 8,-157.8 306,-157.8 306,-32.8 8,-32.8"/>
</g>
<g id="clust2" class="cluster">
<title>cluster_GamePageModule_declarations</title>
<polygon fill="none" stroke="black" points="206,-40.8 206,-92.8 298,-92.8 298,-40.8 206,-40.8"/>
</g>
<g id="clust4" class="cluster">
<title>cluster_GamePageModule_imports</title>
<polygon fill="none" stroke="black" points="16,-40.8 16,-92.8 198,-92.8 198,-40.8 16,-40.8"/>
</g>
<!-- GamePage -->
<g id="node1" class="node">
<title>GamePage</title>
<polygon fill="#ffffb3" stroke="black" points="290.14,-84.8 213.86,-84.8 213.86,-48.8 290.14,-48.8 290.14,-84.8"/>
<text text-anchor="middle" x="252" y="-62.6" font-family="Times,serif" font-size="14.00">GamePage</text>
</g>
<!-- GamePageModule -->
<g id="node2" class="node">
<title>GamePageModule</title>
<polygon fill="#8dd3c7" stroke="black" points="232.19,-149.8 229.19,-153.8 208.19,-153.8 205.19,-149.8 111.81,-149.8 111.81,-113.8 232.19,-113.8 232.19,-149.8"/>
<text text-anchor="middle" x="172" y="-127.6" font-family="Times,serif" font-size="14.00">GamePageModule</text>
</g>
<!-- GamePage&#45;&gt;GamePageModule -->
<g id="edge1" class="edge">
<title>GamePage&#45;&gt;GamePageModule</title>
<path fill="none" stroke="black" d="M222.89,-84.91C222.89,-84.91 222.89,-103.79 222.89,-103.79"/>
<polygon fill="black" stroke="black" points="219.39,-103.79 222.89,-113.79 226.39,-103.79 219.39,-103.79"/>
</g>
<!-- GamePageRoutingModule -->
<g id="node3" class="node">
<title>GamePageRoutingModule</title>
<polygon fill="#8dd3c7" stroke="black" points="189.81,-84.8 186.81,-88.8 165.81,-88.8 162.81,-84.8 24.19,-84.8 24.19,-48.8 189.81,-48.8 189.81,-84.8"/>
<text text-anchor="middle" x="107" y="-62.6" font-family="Times,serif" font-size="14.00">GamePageRoutingModule</text>
</g>
<!-- GamePageRoutingModule&#45;&gt;GamePageModule -->
<g id="edge2" class="edge">
<title>GamePageRoutingModule&#45;&gt;GamePageModule</title>
<path fill="none" stroke="black" d="M150.78,-84.91C150.78,-84.91 150.78,-103.79 150.78,-103.79"/>
<polygon fill="black" stroke="black" points="147.28,-103.79 150.78,-113.79 154.28,-103.79 147.28,-103.79"/>
</g>
</g>
</svg>
