<?xml version="1.0" encoding="UTF-8" standalone="no"?>
<!DOCTYPE svg PUBLIC "-//W3C//DTD SVG 1.1//EN"
 "http://www.w3.org/Graphics/SVG/1.1/DTD/svg11.dtd">
<!-- Generated by graphviz version 5.0.0 (20220707.1540)
 -->
<!-- Title: dependencies Pages: 1 -->
<svg width="488pt" height="174pt"
 viewBox="0.00 0.00 488.00 173.80" xmlns="http://www.w3.org/2000/svg" xmlns:xlink="http://www.w3.org/1999/xlink">
<g id="graph0" class="graph" transform="scale(1 1) rotate(0) translate(4 169.8)">
<title>dependencies</title>
<polygon fill="white" stroke="transparent" points="-4,4 -4,-169.8 484,-169.8 484,4 -4,4"/>
<text text-anchor="middle" x="240" y="-8.2" font-family="sans-serif" font-size="14.00">dependencies</text>
<g id="clust1" class="cluster">
<title>cluster_ScoresPageModule</title>
<polygon fill="none" stroke="black" stroke-dasharray="1,5" points="8,-32.8 8,-157.8 472,-157.8 472,-32.8 8,-32.8"/>
</g>
<g id="clust2" class="cluster">
<title>cluster_ScoresPageModule_declarations</title>
<polygon fill="none" stroke="black" points="210,-40.8 210,-92.8 464,-92.8 464,-40.8 210,-40.8"/>
</g>
<g id="clust5" class="cluster">
<title>cluster_ScoresPageModule_imports</title>
<polygon fill="none" stroke="black" points="16,-40.8 16,-92.8 202,-92.8 202,-40.8 16,-40.8"/>
</g>
<!-- ScoresListComponent -->
<g id="node1" class="node">
<title>ScoresListComponent</title>
<polygon fill="#ffffb3" stroke="black" points="456.44,-84.8 315.56,-84.8 315.56,-48.8 456.44,-48.8 456.44,-84.8"/>
<text text-anchor="middle" x="386" y="-62.6" font-family="Times,serif" font-size="14.00">ScoresListComponent</text>
</g>
<!-- ScoresPageModule -->
<g id="node3" class="node">
<title>ScoresPageModule</title>
<polygon fill="#8dd3c7" stroke="black" points="320.09,-149.8 317.09,-153.8 296.09,-153.8 293.09,-149.8 195.91,-149.8 195.91,-113.8 320.09,-113.8 320.09,-149.8"/>
<text text-anchor="middle" x="258" y="-127.6" font-family="Times,serif" font-size="14.00">ScoresPageModule</text>
</g>
<!-- ScoresListComponent&#45;&gt;ScoresPageModule -->
<g id="edge1" class="edge">
<title>ScoresListComponent&#45;&gt;ScoresPageModule</title>
<path fill="none" stroke="black" d="M315.78,-66.8C310.41,-66.8 307.03,-66.8 307.03,-66.8 307.03,-66.8 307.03,-103.69 307.03,-103.69"/>
<polygon fill="black" stroke="black" points="303.53,-103.69 307.03,-113.69 310.53,-103.69 303.53,-103.69"/>
</g>
<!-- ScoresPage -->
<g id="node2" class="node">
<title>ScoresPage</title>
<polygon fill="#ffffb3" stroke="black" points="298.04,-84.8 217.96,-84.8 217.96,-48.8 298.04,-48.8 298.04,-84.8"/>
<text text-anchor="middle" x="258" y="-62.6" font-family="Times,serif" font-size="14.00">ScoresPage</text>
</g>
<!-- ScoresPage&#45;&gt;ScoresPageModule -->
<g id="edge2" class="edge">
<title>ScoresPage&#45;&gt;ScoresPageModule</title>
<path fill="none" stroke="black" d="M258,-84.91C258,-84.91 258,-103.79 258,-103.79"/>
<polygon fill="black" stroke="black" points="254.5,-103.79 258,-113.79 261.5,-103.79 254.5,-103.79"/>
</g>
<!-- ScoresPageRoutingModule -->
<g id="node4" class="node">
<title>ScoresPageRoutingModule</title>
<polygon fill="#8dd3c7" stroke="black" points="193.71,-84.8 190.71,-88.8 169.71,-88.8 166.71,-84.8 24.29,-84.8 24.29,-48.8 193.71,-48.8 193.71,-84.8"/>
<text text-anchor="middle" x="109" y="-62.6" font-family="Times,serif" font-size="14.00">ScoresPageRoutingModule</text>
</g>
<!-- ScoresPageRoutingModule&#45;&gt;ScoresPageModule -->
<g id="edge3" class="edge">
<title>ScoresPageRoutingModule&#45;&gt;ScoresPageModule</title>
<path fill="none" stroke="black" d="M193.65,-66.8C201.65,-66.8 206.84,-66.8 206.84,-66.8 206.84,-66.8 206.84,-103.69 206.84,-103.69"/>
<polygon fill="black" stroke="black" points="203.34,-103.69 206.84,-113.69 210.34,-103.69 203.34,-103.69"/>
</g>
</g>
</svg>
